<svg width="1334" height="761" viewBox="0 0 1334 761" fill="none" xmlns="http://www.w3.org/2000/svg">
<path d="M542.183 209.747C528.551 214.317 505.41 226.176 469.114 249.816C310.183 353.334 194.039 374.598 119.817 350.699C42.8567 325.918 17.993 274.5 40.0676 222.576C44.9991 210.976 58.4008 205.57 70.0011 210.501C81.6013 215.433 87.0075 228.834 82.076 240.435C68.4442 272.501 82.291 290.661 133.807 307.249C188.062 324.719 288.931 312.7 444.201 211.568C486.495 184.02 517.738 167.655 539.553 163.229C550.306 161.048 565.254 160.448 576.957 170.707C588.656 180.963 589.668 195.55 589.045 204.899C587.783 223.837 577.866 248.894 566.851 273.52C559.541 289.863 550.748 308.083 541.769 326.686C536.752 337.08 531.498 346.514 526.071 357.99C524.652 360.99 520.737 368.49 519.139 372.411C508.429 398.688 507.03 419.375 509.276 432.049C510.283 437.729 512.164 440.714 514.062 442.517C515.996 444.355 519.873 446.786 528.066 447.919C545.611 450.346 576.474 445.949 626.818 427.408C678.488 408.379 717.577 397.584 746.591 393.546C773.9 389.746 798.909 390.905 815.363 404.693C834.464 420.697 832.463 444.2 827.926 460.044C825.214 469.515 820.85 479.317 815.721 488.902C973.531 394.469 1171.1 426.251 1285.1 550.376C1293.62 559.66 1293.01 574.097 1283.73 582.624C1274.44 591.15 1260.01 590.536 1251.48 581.253C1143.91 464.127 949.437 440.224 804.052 551.977C777.097 572.696 759.572 585.562 749.501 591.649C746.961 593.184 744.049 594.813 741.112 596.007C739.674 596.591 737.406 597.416 734.662 597.872C732.41 598.246 726.565 598.962 720.15 595.917C711.955 592.026 707.949 584.606 706.968 578.133C706.188 572.983 707.285 568.829 707.803 567.094C708.93 563.323 710.795 560.083 711.863 558.304C715.619 552.05 723.002 542.432 730.679 532.43L730.683 532.426L730.706 532.395C732.081 530.605 733.465 528.802 734.839 527.004C744.579 514.259 755.451 499.754 764.781 485.319C774.33 470.546 781.184 457.463 784.043 447.479C785.337 442.958 785.479 440.504 785.382 439.327C784.478 438.912 782.58 438.238 779.113 437.783C773.463 437.043 765.004 437.071 752.883 438.758C728.605 442.136 693.048 451.661 642.593 470.242C590.812 489.312 551.032 497.178 521.811 493.136C506.621 491.034 493.085 485.548 482.625 475.613C472.128 465.642 467.197 453.222 464.332 440.018C459.963 415.374 466.725 387.509 476.071 359.49C477.731 354.514 481.231 347.49 485.507 338.451C490.787 327.287 496.033 316.422 501.111 305.902L501.119 305.886L501.123 305.879C509.864 287.775 518.11 270.695 525.183 254.882C534.075 235.003 539.748 219.948 542.183 209.747Z" stroke="#111010" stroke-width="2" stroke-linecap="round" stroke-linejoin="round"/>
<path d="M1266.02 482.609C1266.57 482.575 1266.99 482.1 1266.96 481.549L1266.4 472.566C1266.36 472.015 1265.89 471.596 1265.34 471.63C1264.79 471.665 1264.37 472.139 1264.4 472.69L1264.9 480.675L1256.91 481.172C1256.36 481.206 1255.94 481.681 1255.98 482.232C1256.01 482.783 1256.49 483.202 1257.04 483.168L1266.02 482.609ZM1193.84 431.6C1193.34 431.351 1192.74 431.548 1192.49 432.041C1192.24 432.533 1192.44 433.135 1192.93 433.384L1193.84 431.6ZM1266.62 480.861C1244.42 461.261 1219.92 444.802 1193.84 431.6L1192.93 433.384C1218.87 446.512 1243.23 462.876 1265.3 482.361L1266.62 480.861Z" fill="#111010"/>
<path d="M83.8267 380.963C84.3423 380.766 84.5998 380.187 84.4018 379.671L81.1758 371.269C80.9779 370.754 80.3994 370.496 79.8839 370.694C79.3683 370.892 79.1108 371.471 79.3087 371.986L82.1763 379.455L74.7078 382.322C74.1923 382.52 73.9348 383.099 74.1327 383.614C74.3307 384.13 74.9091 384.387 75.4247 384.189L83.8267 380.963ZM18.7435 316.399C18.5237 315.892 17.9348 315.66 17.4281 315.88C16.9215 316.099 16.689 316.688 16.9088 317.195L18.7435 316.399ZM16.9088 317.195C28.212 343.244 50.1318 366.285 83.0616 380.943L83.8749 379.116C51.3707 364.648 29.8339 341.958 18.7435 316.399L16.9088 317.195Z" fill="#111010"/>
</svg>
