<svg width="943" height="111" viewBox="0 0 943 111" fill="none" xmlns="http://www.w3.org/2000/svg">
<path d="M886.805 1.22809C902.771 1.22809 915.002 4.09392 923.498 9.8256C931.993 15.4549 936.24 24.2571 936.24 36.2322C936.24 43.7039 934.5 49.7938 931.02 54.5019C927.643 59.1078 922.73 62.7412 916.282 65.4024C918.431 68.0635 920.683 71.134 923.037 74.614C925.391 77.9916 927.694 81.5739 929.946 85.3609C932.3 89.0455 934.552 92.9349 936.701 97.0289C938.85 101.021 940.846 104.961 942.688 108.85H915.821C913.877 105.371 911.881 101.839 909.834 98.2571C907.889 94.6748 905.842 91.1949 903.693 87.8173C901.646 84.4397 899.599 81.2668 897.552 78.2986C895.504 75.2281 893.457 72.4646 891.41 70.0082H879.589V108.85H855.639V3.99157C860.859 2.96806 866.232 2.2516 871.759 1.8422C877.388 1.43279 882.404 1.22809 886.805 1.22809ZM888.186 21.6472C886.446 21.6472 884.86 21.6984 883.427 21.8007C882.096 21.9031 880.817 22.0054 879.589 22.1078V50.9708H886.344C895.351 50.9708 901.799 49.845 905.688 47.5932C909.578 45.3415 911.523 41.5033 911.523 36.0787C911.523 30.8588 909.527 27.1741 905.535 25.0248C901.646 22.773 895.863 21.6472 888.186 21.6472Z" fill="#FFB703"/>
<path d="M788.697 111C781.225 111 774.777 109.977 769.352 107.93C763.928 105.78 759.424 102.863 755.842 99.1785C752.362 95.3915 749.752 90.9392 748.012 85.8217C746.374 80.6017 745.556 74.8701 745.556 68.6266V2.45651H769.506V66.6308C769.506 70.9296 769.966 74.6142 770.888 77.6847C771.911 80.6529 773.242 83.1094 774.879 85.054C776.619 86.8964 778.666 88.2269 781.02 89.0457C783.477 89.8645 786.138 90.2739 789.004 90.2739C794.838 90.2739 799.546 88.4828 803.128 84.9005C806.813 81.3182 808.655 75.2283 808.655 66.6308V2.45651H832.605V68.6266C832.605 74.8701 831.735 80.6017 829.995 85.8217C828.256 91.0416 825.594 95.545 822.012 99.332C818.43 103.017 813.875 105.883 808.348 107.93C802.821 109.977 796.271 111 788.697 111Z" fill="#FFB703"/>
<path d="M653.985 108.851V2.45651H725.836V22.5685H677.936V43.4482H720.463V63.0997H677.936V88.7387H729.367V108.851H653.985Z" fill="#FFB703"/>
<path d="M638.414 2.91687V22.3636H606.55V104.245H582.767V22.3636H550.903V2.91687H638.414Z" fill="#FFB703"/>
<path d="M492.738 111C485.266 111 478.818 109.977 473.393 107.93C467.969 105.78 463.465 102.863 459.883 99.1785C456.403 95.3915 453.793 90.9392 452.053 85.8216C450.415 80.6017 449.597 74.8701 449.597 68.6266V2.4565H473.547V66.6308C473.547 70.9295 474.007 74.6142 474.929 77.6847C475.952 80.6529 477.283 83.1093 478.92 85.054C480.66 86.8963 482.707 88.2269 485.061 89.0457C487.518 89.8645 490.179 90.2739 493.045 90.2739C498.879 90.2739 503.587 88.4828 507.169 84.9005C510.854 81.3182 512.696 75.2283 512.696 66.6308V2.4565H536.646V68.6266C536.646 74.8701 535.776 80.6017 534.037 85.8216C532.297 91.0416 529.635 95.545 526.053 99.332C522.471 103.017 517.916 105.883 512.389 107.93C506.862 109.977 500.312 111 492.738 111Z" fill="#FFB703"/>
<path d="M435.758 2.91687V23.0914H403.895V104.245H380.112V23.0914H348.248V2.91687H435.758Z" fill="#FFB703"/>
<path d="M312.171 108.851C305.314 96.6709 297.893 84.6446 289.91 72.7719C281.926 60.8991 273.431 49.6916 264.424 39.1495V108.851H240.781V2.45651H260.279C263.657 5.83411 267.393 9.97933 271.487 14.8922C275.581 19.8051 279.726 25.0762 283.922 30.7055C288.221 36.2325 292.469 42.0153 296.665 48.054C300.861 53.9904 304.802 59.7221 308.487 65.2491V2.45651H332.283V108.851H312.171Z" fill="#FFB703"/>
<path d="M139.602 55.5768C139.602 60.7967 140.216 65.5048 141.444 69.7012C142.775 73.8976 144.617 77.5311 146.971 80.6017C149.427 83.5698 152.396 85.8728 155.875 87.5104C159.355 89.148 163.347 89.9668 167.851 89.9668C172.252 89.9668 176.192 89.148 179.672 87.5104C183.254 85.8728 186.223 83.5698 188.577 80.6017C191.033 77.5311 192.875 73.8976 194.104 69.7012C195.434 65.5048 196.1 60.7967 196.1 55.5768C196.1 50.3568 195.434 45.6487 194.104 41.4523C192.875 37.1535 191.033 33.5201 188.577 30.5519C186.223 27.4813 183.254 25.1272 179.672 23.4896C176.192 21.852 172.252 21.0332 167.851 21.0332C163.347 21.0332 159.355 21.9032 155.875 23.6432C152.396 25.2808 149.427 27.6349 146.971 30.7054C144.617 33.6736 142.775 37.3071 141.444 41.6058C140.216 45.8022 139.602 50.4592 139.602 55.5768ZM220.817 55.5768C220.817 64.686 219.436 72.7206 216.672 79.6805C214.011 86.538 210.326 92.3209 205.618 97.0291C200.91 101.635 195.281 105.115 188.73 107.469C182.282 109.823 175.322 111 167.851 111C160.584 111 153.726 109.823 147.278 107.469C140.83 105.115 135.201 101.635 130.39 97.0291C125.579 92.3209 121.792 86.538 119.029 79.6805C116.266 72.7206 114.884 64.686 114.884 55.5768C114.884 46.4675 116.317 38.4841 119.183 31.6266C122.048 24.6667 125.887 18.8326 130.697 14.1245C135.61 9.41632 141.239 5.8852 147.585 3.53112C154.033 1.17704 160.788 0 167.851 0C175.118 0 181.975 1.17704 188.423 3.53112C194.871 5.8852 200.501 9.41632 205.311 14.1245C210.122 18.8326 213.909 24.6667 216.672 31.6266C219.436 38.4841 220.817 46.4675 220.817 55.5768Z" fill="#FFB703"/>
<path fill-rule="evenodd" clip-rule="evenodd" d="M45.03 0H0V110.691H41.9846L12.6604 62.7954L8.41326 68.6569L4.36265 65.6426L9.41275 57.491L4.82956 50.0052L8.73736 45.7561L12.9835 51.7274L45.03 0ZM54.9115 110.691H58.4658C60.2836 110.691 62.0521 110.627 63.7711 110.499L26.2949 56.758L26.2964 56.7566L65.2809 0.663204C63.0013 0.326994 60.6189 0.118614 58.1338 0.038066L16.7956 57.0885L54.9115 110.691ZM77.0956 3.9325L31.6157 56.6253L76.1408 108.213C77.5238 107.779 78.8627 107.287 80.1575 106.738C82.4915 105.727 84.6256 104.572 86.5598 103.274L39.5333 56.9269L43.4865 52.9737L43.5303 53.0089L86.6612 9.87164C84.0076 7.49264 80.819 5.51293 77.0956 3.9325ZM93.807 19.6645L47.53 56.23L95.2282 94.6425C98.3994 89.96 99.985 84.6094 99.985 78.5905C99.985 73.1087 98.2904 68.2067 94.901 63.8845C91.5117 59.5622 86.9361 56.1361 81.1743 53.606C85.6934 51.0759 89.2522 47.8079 91.8506 43.802C94.5621 39.6906 95.9178 35.2103 95.9178 30.3609C95.9178 26.4891 95.2142 22.9236 93.807 19.6645Z" fill="#FFB703"/>
</svg>
