<svg width="457" height="505" viewBox="0 0 457 505" fill="none" xmlns="http://www.w3.org/2000/svg">
<path fill-rule="evenodd" clip-rule="evenodd" d="M205.788 0H0.688477V504.169H191.917L58.3526 286.018L39.0079 312.715L20.5584 298.985L43.5604 261.857L22.685 227.761L40.4841 208.408L59.824 235.606L205.788 0ZM250.795 504.169H266.985C275.265 504.169 283.32 503.877 291.149 503.294L120.454 258.518L120.462 258.511L298.026 3.02072C287.643 1.48934 276.792 0.540224 265.473 0.173362L77.1874 260.024L250.795 504.169ZM351.839 17.9115L144.69 257.914L347.49 492.885C353.79 490.905 359.888 488.664 365.785 486.163C376.416 481.557 386.136 476.298 394.946 470.386L180.752 259.288L198.758 241.282L198.958 241.443L395.408 44.9628C383.322 34.127 368.799 25.11 351.839 17.9115ZM427.956 89.567L217.175 256.113L434.428 431.073C448.873 409.745 456.095 385.374 456.095 357.96C456.095 332.992 448.376 310.664 432.939 290.978C417.501 271.291 396.66 255.686 370.417 244.162C391 232.638 407.209 217.753 419.045 199.507C431.395 180.781 437.57 160.374 437.57 138.286C437.57 120.651 434.365 104.411 427.956 89.567Z" fill="#FFB703"/>
</svg>
