<svg width="456" height="505" viewBox="0 0 456 505" fill="none" xmlns="http://www.w3.org/2000/svg">
<path fill-rule="evenodd" clip-rule="evenodd" d="M205.506 0H0.40625V504.169H191.635L58.0708 286.018L38.7261 312.715L20.2766 298.985L43.2786 261.857L22.4032 227.761L40.2023 208.408L59.5422 235.606L205.506 0ZM250.513 504.169H266.703C274.983 504.169 283.037 503.877 290.867 503.294L120.172 258.518L120.18 258.512L297.744 3.0207C287.361 1.48936 276.51 0.540246 265.191 0.173375L76.9056 260.024L250.513 504.169ZM351.557 17.9115L144.408 257.914L347.208 492.885C353.507 490.905 359.606 488.664 365.503 486.163C376.134 481.557 385.854 476.299 394.664 470.386L180.47 259.288L198.476 241.282L198.676 241.443L395.126 44.9629C383.039 34.1271 368.516 25.1099 351.557 17.9115ZM427.673 89.5671L216.893 256.114L434.146 431.073C448.59 409.745 455.813 385.374 455.813 357.96C455.813 332.992 448.094 310.664 432.656 290.978C417.219 271.291 396.378 255.686 370.134 244.162C390.718 232.638 406.927 217.753 418.763 199.507C431.113 180.781 437.288 160.374 437.288 138.286C437.288 120.651 434.083 104.411 427.673 89.5671Z" fill="#023047"/>
</svg>
