<svg width="239" height="361" viewBox="0 0 239 361" fill="none" xmlns="http://www.w3.org/2000/svg">
<path d="M42.0824 154.767V56.2621C42.0824 52.187 38.7914 48.8835 34.7318 48.8835C30.6721 48.8835 27.3811 52.187 27.3811 56.2621V159.471C27.3811 171.543 37.1307 181.33 49.1574 181.33C61.1841 181.33 70.9336 171.543 70.9336 159.471V50.11C70.9336 46.4782 73.8667 43.534 77.4847 43.534C81.0813 43.534 84.0054 46.4446 84.0356 50.0548L85.0208 167.745C85.0556 171.896 88.4178 175.243 92.5532 175.243C96.7393 175.243 100.122 171.817 100.086 167.615L99.0519 49.6191C98.949 37.8743 89.435 28.4078 77.7344 28.4078C65.9606 28.4078 56.4161 37.9886 56.4161 49.8073V154.767C56.4161 158.74 53.2074 161.961 49.2493 161.961C45.2911 161.961 42.0824 158.74 42.0824 154.767Z" fill="#3D7DED"/>
<path d="M125.696 258.449V72.7829C125.696 68.7077 122.405 65.4042 118.345 65.4042C114.286 65.4042 110.995 68.7077 110.995 72.7828V278.083C110.995 290.155 120.744 299.942 132.771 299.942C144.798 299.942 154.547 290.155 154.547 278.083V62.4798C154.547 58.8631 157.468 55.9313 161.071 55.9313C164.674 55.9313 167.594 58.8631 167.594 62.4798V353.529C167.594 357.655 170.927 361 175.037 361C179.147 361 182.48 357.655 182.48 353.529V50.4515C182.48 38.6846 172.977 29.1456 161.255 29.1456C149.532 29.1456 140.03 38.6846 140.03 50.4514V258.449C140.03 262.422 136.821 265.643 132.863 265.643C128.905 265.643 125.696 262.422 125.696 258.449Z" fill="#3D7DED"/>
<path d="M0 91.4951C0 87.42 3.29099 84.1165 7.35063 84.1165C11.4103 84.1165 14.7013 87.42 14.7013 91.4951V141.301C14.7013 145.376 11.4103 148.68 7.35063 148.68C3.29099 148.68 0 145.376 0 141.301V91.4951Z" fill="#3D7DED"/>
<path d="M194.424 132.078C194.424 128.003 197.715 124.699 201.775 124.699C205.835 124.699 209.126 128.003 209.126 132.078V181.883C209.126 185.959 205.835 189.262 201.775 189.262C197.715 189.262 194.424 185.959 194.424 181.883V132.078Z" fill="#3D7DED"/>
<path d="M224.472 81.2969C225.351 77.3184 229.276 74.8086 233.239 75.691C237.203 76.5735 239.703 80.514 238.824 84.4924L234.208 105.383C233.329 109.361 229.403 111.871 225.44 110.989C221.477 110.106 218.977 106.166 219.856 102.187L224.472 81.2969Z" fill="#3D7DED"/>
<path d="M192.219 252.35C192.219 248.274 195.51 244.971 199.57 244.971C203.629 244.971 206.92 248.274 206.92 252.35V267.476C206.92 271.551 203.629 274.854 199.57 274.854C195.51 274.854 192.219 271.551 192.219 267.476V252.35Z" fill="#3D7DED"/>
<path d="M142.235 317.835C142.235 323.642 137.545 328.35 131.76 328.35C125.975 328.35 121.285 323.642 121.285 317.835C121.285 312.028 125.975 307.32 131.76 307.32C137.545 307.32 142.235 312.028 142.235 317.835Z" fill="#3D7DED"/>
<path d="M173.107 10.5146C173.107 16.3216 168.418 21.0291 162.633 21.0291C156.848 21.0291 152.158 16.3216 152.158 10.5146C152.158 4.70753 156.848 0 162.633 0C168.418 0 173.107 4.70753 173.107 10.5146Z" fill="#3D7DED"/>
</svg>
