<svg width="1003" height="219" viewBox="0 0 1003 219" fill="none" xmlns="http://www.w3.org/2000/svg">
<path d="M25.3551 93.8891V34.1313C25.3551 31.6592 23.3722 29.6551 20.9262 29.6551C18.4803 29.6551 16.4974 31.6592 16.4974 34.1313V96.7427C16.4974 104.066 22.3716 110.004 29.6178 110.004C36.864 110.004 42.7383 104.066 42.7383 96.7427V30.3992C42.7383 28.1959 44.5054 26.4098 46.6854 26.4098C48.8523 26.4098 50.6141 28.1755 50.6323 30.3656L51.2259 101.762C51.2469 104.28 53.2726 106.311 55.7643 106.311C58.2864 106.311 60.3248 104.232 60.3026 101.683L59.6798 30.1013C59.6178 22.9764 53.8855 17.2335 46.8358 17.2335C39.742 17.2335 33.9913 23.0457 33.9913 30.2155V93.8891C33.9913 96.2995 32.058 98.2535 29.6732 98.2535C27.2884 98.2535 25.3551 96.2995 25.3551 93.8891Z" fill="white"/>
<path d="M75.7331 156.788V44.1536C75.7331 41.6814 73.7502 39.6773 71.3042 39.6773C68.8583 39.6773 66.8754 41.6814 66.8754 44.1536V168.698C66.8754 176.022 72.7496 181.959 79.9958 181.959C87.242 181.959 93.1162 176.022 93.1162 168.698V37.9033C93.1162 35.7092 94.876 33.9306 97.0468 33.9306C99.2176 33.9306 100.977 35.7092 100.977 37.9033V214.468C100.977 216.971 102.985 219 105.462 219C107.938 219 109.946 216.971 109.946 214.468V30.6063C109.946 23.4679 104.22 17.6811 97.1576 17.6811C90.0948 17.6811 84.3693 23.4679 84.3693 30.6063V156.788C84.3693 159.198 82.436 161.152 80.0512 161.152C77.6664 161.152 75.7331 159.198 75.7331 156.788Z" fill="white"/>
<path d="M0 55.5054C0 53.0332 1.98286 51.0291 4.42883 51.0291C6.87481 51.0291 8.85767 53.0332 8.85767 55.5054V85.72C8.85767 88.1921 6.87481 90.1962 4.42883 90.1962C1.98286 90.1962 0 88.1921 0 85.72V55.5054Z" fill="white"/>
<path d="M117.143 80.1247C117.143 77.6525 119.126 75.6484 121.572 75.6484C124.017 75.6484 126 77.6525 126 80.1247V110.339C126 112.811 124.017 114.816 121.572 114.816C119.126 114.816 117.143 112.811 117.143 110.339V80.1247Z" fill="white"/>
<path d="M135.246 49.3186C135.776 46.9051 138.141 45.3825 140.529 45.9178C142.917 46.4532 144.424 48.8436 143.894 51.2571L141.113 63.9303C140.583 66.3438 138.218 67.8663 135.83 67.331C133.442 66.7957 131.936 64.4052 132.465 61.9917L135.246 49.3186Z" fill="white"/>
<path d="M115.814 153.087C115.814 150.615 117.797 148.611 120.243 148.611C122.689 148.611 124.672 150.615 124.672 153.087V162.264C124.672 164.736 122.689 166.74 120.243 166.74C117.797 166.74 115.814 164.736 115.814 162.264V153.087Z" fill="white"/>
<path d="M85.698 192.814C85.698 196.337 82.8724 199.193 79.3869 199.193C75.9013 199.193 73.0758 196.337 73.0758 192.814C73.0758 189.291 75.9013 186.435 79.3869 186.435C82.8724 186.435 85.698 189.291 85.698 192.814Z" fill="white"/>
<path d="M104.299 6.37864C104.299 9.90147 101.473 12.7573 97.988 12.7573C94.5025 12.7573 91.6769 9.90147 91.6769 6.37864C91.6769 2.85582 94.5025 0 97.988 0C101.473 0 104.299 2.85582 104.299 6.37864Z" fill="white"/>
<path d="M942.596 191.619C931.014 191.619 920.712 189.195 911.69 184.347C902.802 179.499 895.732 172.9 890.48 164.551C885.362 156.067 882.804 146.438 882.804 135.665C882.804 124.757 885.362 115.128 890.48 106.779C895.732 98.2949 902.802 91.6963 911.69 86.9829C920.712 82.1349 931.014 79.7109 942.596 79.7109C954.042 79.7109 964.277 82.1349 973.3 86.9829C982.322 91.6963 989.392 98.2276 994.51 106.577C999.627 114.926 1002.19 124.622 1002.19 135.665C1002.19 146.438 999.627 156.067 994.51 164.551C989.392 172.9 982.322 179.499 973.3 184.347C964.277 189.195 954.042 191.619 942.596 191.619ZM942.596 165.763C947.848 165.763 952.561 164.551 956.736 162.127C960.91 159.703 964.21 156.269 966.634 151.825C969.058 147.246 970.27 141.86 970.27 135.665C970.27 129.336 969.058 123.949 966.634 119.505C964.21 115.061 960.91 111.627 956.736 109.203C952.561 106.779 947.848 105.567 942.596 105.567C937.344 105.567 932.63 106.779 928.456 109.203C924.281 111.627 920.914 115.061 918.356 119.505C915.932 123.949 914.72 129.336 914.72 135.665C914.72 141.86 915.932 147.246 918.356 151.825C920.914 156.269 924.281 159.703 928.456 162.127C932.63 164.551 937.344 165.763 942.596 165.763Z" fill="white"/>
<path d="M815.653 191.617C806.092 191.617 797.877 189.597 791.009 185.557C784.141 181.517 778.889 175.39 775.253 167.175C771.617 158.826 769.799 148.322 769.799 135.663C769.799 122.87 771.684 112.366 775.455 104.151C779.36 95.9365 784.747 89.8092 791.615 85.7692C798.483 81.7292 806.496 79.7092 815.653 79.7092C825.888 79.7092 835.045 81.9985 843.125 86.5772C851.34 91.1559 857.804 97.6199 862.517 105.969C867.365 114.319 869.789 124.217 869.789 135.663C869.789 146.975 867.365 156.806 862.517 165.155C857.804 173.505 851.34 180.036 843.125 184.749C835.045 189.328 825.888 191.617 815.653 191.617ZM751.417 190.001V40.1172H782.929V103.343L780.909 135.461L781.515 167.781V190.001H751.417ZM810.199 165.761C815.451 165.761 820.097 164.549 824.137 162.125C828.312 159.701 831.611 156.267 834.035 151.823C836.594 147.245 837.873 141.858 837.873 135.663C837.873 129.334 836.594 123.947 834.035 119.503C831.611 115.059 828.312 111.625 824.137 109.201C820.097 106.777 815.451 105.565 810.199 105.565C804.947 105.565 800.234 106.777 796.059 109.201C791.884 111.625 788.585 115.059 786.161 119.503C783.737 123.947 782.525 129.334 782.525 135.663C782.525 141.858 783.737 147.245 786.161 151.823C788.585 156.267 791.884 159.701 796.059 162.125C800.234 164.549 804.947 165.761 810.199 165.761Z" fill="white"/>
<path d="M677.807 79.7109C686.426 79.7109 694.102 81.4616 700.835 84.9629C707.703 88.3296 713.09 93.5816 716.995 100.719C720.9 107.722 722.853 116.744 722.853 127.787V190.003H691.341V132.635C691.341 123.882 689.388 117.418 685.483 113.243C681.712 109.068 676.326 106.981 669.323 106.981C664.34 106.981 659.829 108.058 655.789 110.213C651.884 112.233 648.786 115.398 646.497 119.707C644.342 124.016 643.265 129.538 643.265 136.271V190.003H611.753V81.3269H641.851V111.425L636.195 102.335C640.1 95.0629 645.689 89.4743 652.961 85.5689C660.233 81.6636 668.515 79.7109 677.807 79.7109Z" fill="white"/>
<path d="M538.253 191.619C525.864 191.619 514.956 189.195 505.529 184.347C496.237 179.499 489.033 172.9 483.915 164.551C478.798 156.067 476.239 146.438 476.239 135.665C476.239 124.757 478.731 115.128 483.713 106.779C488.831 98.2949 495.766 91.6963 504.519 86.9829C513.273 82.1349 523.171 79.7109 534.213 79.7109C544.852 79.7109 554.413 82.0003 562.897 86.5789C571.516 91.0229 578.317 97.4869 583.299 105.971C588.282 114.32 590.773 124.353 590.773 136.069C590.773 137.281 590.706 138.695 590.571 140.311C590.437 141.792 590.302 143.206 590.167 144.553H501.893V126.171H573.603L561.483 131.625C561.483 125.969 560.339 121.054 558.049 116.879C555.76 112.704 552.595 109.472 548.555 107.183C544.515 104.759 539.802 103.547 534.415 103.547C529.029 103.547 524.248 104.759 520.073 107.183C516.033 109.472 512.869 112.772 510.579 117.081C508.29 121.256 507.145 126.238 507.145 132.029V136.877C507.145 142.802 508.425 148.054 510.983 152.633C513.677 157.077 517.38 160.511 522.093 162.935C526.941 165.224 532.597 166.369 539.061 166.369C544.852 166.369 549.902 165.494 554.211 163.743C558.655 161.992 562.695 159.366 566.331 155.865L583.097 174.045C578.115 179.701 571.853 184.078 564.311 187.175C556.77 190.138 548.084 191.619 538.253 191.619Z" fill="white"/>
<path d="M423.562 190.001V40.1172H455.074V190.001H423.562Z" fill="white"/>
<path d="M365.55 190.003V168.793L363.53 164.147V126.171C363.53 119.438 361.442 114.186 357.268 110.415C353.228 106.644 346.966 104.759 338.482 104.759C332.691 104.759 326.968 105.702 321.312 107.587C315.79 109.338 311.077 111.762 307.172 114.859L295.86 92.8409C301.785 88.6663 308.922 85.4343 317.272 83.1449C325.621 80.8556 334.105 79.7109 342.724 79.7109C359.288 79.7109 372.149 83.6163 381.306 91.4269C390.463 99.2376 395.042 111.425 395.042 127.989V190.003H365.55ZM332.422 191.619C323.938 191.619 316.666 190.205 310.606 187.377C304.546 184.414 299.9 180.442 296.668 175.459C293.436 170.476 291.82 164.888 291.82 158.693C291.82 152.229 293.368 146.573 296.466 141.725C299.698 136.877 304.748 133.106 311.616 130.413C318.484 127.585 327.439 126.171 338.482 126.171H367.368V144.553H341.916C334.509 144.553 329.392 145.765 326.564 148.189C323.871 150.613 322.524 153.643 322.524 157.279C322.524 161.319 324.072 164.551 327.17 166.975C330.402 169.264 334.778 170.409 340.3 170.409C345.552 170.409 350.265 169.197 354.44 166.773C358.614 164.214 361.645 160.511 363.53 155.663L368.378 170.207C366.088 177.21 361.914 182.529 355.854 186.165C349.794 189.801 341.983 191.619 332.422 191.619Z" fill="white"/>
<path d="M211.056 190.002V75.2656H165.808V48.6016H289.028V75.2656H243.78V190.002H211.056Z" fill="white"/>
</svg>
