<svg width="621" height="226" viewBox="0 0 621 226" fill="none" xmlns="http://www.w3.org/2000/svg">
<path fill-rule="evenodd" clip-rule="evenodd" d="M54.946 0.948731C43.3843 -5.36838 -49.5841 142.693 38.2486 224.6C39.7079 225.961 41.9809 225.945 43.4177 224.646C78.4692 215.514 101.606 198.185 115.243 176.737C129.107 154.932 132.889 129.287 129.919 104.578C126.952 79.882 117.222 55.8977 103.75 37.1472C90.5126 18.7233 73.3353 4.92266 54.946 0.948731ZM89.7888 32.2671C90.8699 33.9026 91.9218 35.5827 92.9427 37.3025C103.713 55.4452 111.466 78.7038 113.718 102.798C115.97 126.894 112.741 152.071 101.252 173.88C96.3511 183.183 89.97 191.828 81.9329 199.483C93.4748 191.741 102.219 182.553 108.602 172.514C121.282 152.571 124.909 128.849 122.105 105.517C119.3 82.1702 110.074 59.4372 97.3584 41.7394C94.9421 38.3764 92.4119 35.211 89.7888 32.2671ZM94.289 170.211C89.727 178.872 83.7584 186.947 76.1665 194.104C93.484 168.37 99.0147 134.304 97.4657 102.607C96.291 78.5669 91.0505 55.4018 83.4557 37.3768C83.2891 36.9814 83.1212 36.5882 82.9521 36.1973C84.0494 37.8419 85.1247 39.5505 86.1751 41.3199C96.3312 58.4285 103.735 80.5595 105.882 103.531C108.029 126.5 104.902 150.065 94.289 170.211ZM63.4379 18.5057C76.8799 54.3027 96.1662 136.772 57.816 203.777C82.9441 179.697 91.447 140.688 89.6049 102.991C88.4701 79.768 83.4027 57.5199 76.203 40.4327C72.6023 31.8872 68.5163 24.7466 64.2139 19.4401C63.9552 19.121 63.6965 18.8096 63.4379 18.5057Z" fill="white"/>
<path d="M234.975 226H215.285V195.088C210.924 193.986 206.908 192.219 203.236 189.786C199.61 187.354 196.489 184.462 193.873 181.111C191.257 177.715 189.214 173.974 187.746 169.889C186.323 165.758 185.611 161.421 185.611 156.877V127.273H205.371V156.877C205.371 159.585 205.876 162.155 206.885 164.588C207.941 166.975 209.364 169.063 211.154 170.853C212.944 172.643 215.032 174.066 217.419 175.122C219.852 176.131 222.422 176.636 225.13 176.636C227.838 176.636 230.385 176.131 232.772 175.122C235.205 174.066 237.316 172.643 239.106 170.853C240.896 169.063 242.296 166.975 243.306 164.588C244.361 162.155 244.889 159.585 244.889 156.877V127.273H264.58V156.877C264.58 161.421 263.845 165.758 262.377 169.889C260.954 173.974 258.934 177.715 256.318 181.111C253.702 184.462 250.581 187.354 246.955 189.786C243.329 192.219 239.336 193.986 234.975 195.088V226Z" fill="white"/>
<path d="M383.752 226H316.075V127.273H383.752V147.032H335.834V166.791H368.261V186.55H335.834V206.241H383.752V226Z" fill="white"/>
<path d="M504.784 226H435.661V127.273H455.42V206.241H504.784V226Z" fill="white"/>
<path d="M620.858 226H553.181V127.273H620.858V147.032H572.94V166.791H605.367V186.55H572.94V206.241H620.858V226Z" fill="white"/>
<path d="M241.198 68.8302V49.211C241.198 46.5222 240.674 43.9929 239.626 41.6231C238.623 39.2078 237.233 37.1114 235.456 35.3341C233.679 33.5567 231.582 32.1668 229.167 31.1642C226.797 30.116 224.268 29.5919 221.579 29.5919C218.89 29.5919 216.338 30.116 213.923 31.1642C211.553 32.1668 209.48 33.5567 207.702 35.3341C205.925 37.1114 204.512 39.2078 203.464 41.6231C202.461 43.9929 201.96 46.5222 201.96 49.211V68.8302H241.198ZM260.817 108H241.198V88.381H201.96V108H182.409V49.211C182.409 43.7879 183.435 38.7065 185.485 33.9669C187.536 29.1817 190.316 25.0118 193.825 21.4571C197.38 17.9024 201.527 15.0997 206.267 13.0489C211.052 10.9981 216.156 9.97276 221.579 9.97276C227.002 9.97276 232.084 10.9981 236.823 13.0489C241.608 15.0997 245.778 17.9024 249.333 21.4571C252.888 25.0118 255.69 29.1817 257.741 33.9669C259.792 38.7065 260.817 43.7879 260.817 49.211V108Z" fill="white"/>
<path d="M346.472 108H277.839V9.97276H297.458V88.381H346.472V108Z" fill="white"/>
<path d="M376.345 29.5919V68.8302H395.964C398.653 68.8302 401.182 68.3289 403.552 67.3263C405.922 66.2781 407.995 64.8653 409.773 63.088C411.55 61.3106 412.94 59.2371 413.942 56.8673C414.991 54.4519 415.515 51.8998 415.515 49.211C415.515 46.5222 414.991 43.9929 413.942 41.6231C412.94 39.2078 411.55 37.1114 409.773 35.3341C407.995 33.5567 405.922 32.1668 403.552 31.1642C401.182 30.116 398.653 29.5919 395.964 29.5919H376.345ZM376.345 108H356.726V9.97276H395.964C399.564 9.97276 403.028 10.4513 406.355 11.4083C409.681 12.3198 412.78 13.6414 415.651 15.3731C418.568 17.0593 421.211 19.1101 423.581 21.5255C425.996 23.8953 428.047 26.5385 429.733 29.4552C431.465 32.3718 432.787 35.4936 433.698 38.8204C434.655 42.1472 435.134 45.6108 435.134 49.211C435.134 54.5886 434.108 59.67 432.058 64.4552C430.007 69.1948 427.204 73.3419 423.649 76.8966C420.095 80.4513 415.925 83.254 411.14 85.3048C406.4 87.3556 401.342 88.381 395.964 88.381H376.345V108Z" fill="white"/>
<path d="M466.306 108H446.687V9.97276H466.306V49.211H505.476V9.97276H525.095V108H505.476V68.8302H466.306V108Z" fill="white"/>
<path d="M601.042 68.8302V49.211C601.042 46.5222 600.518 43.9929 599.47 41.6231C598.467 39.2078 597.077 37.1114 595.3 35.3341C593.523 33.5567 591.426 32.1668 589.011 31.1642C586.641 30.116 584.112 29.5919 581.423 29.5919C578.734 29.5919 576.182 30.116 573.767 31.1642C571.397 32.1668 569.323 33.5567 567.546 35.3341C565.769 37.1114 564.356 39.2078 563.308 41.6231C562.305 43.9929 561.804 46.5222 561.804 49.211V68.8302H601.042ZM620.661 108H601.042V88.381H561.804V108H542.253V49.211C542.253 43.7879 543.278 38.7065 545.329 33.9669C547.38 29.1817 550.16 25.0118 553.669 21.4571C557.224 17.9024 561.371 15.0997 566.11 13.0489C570.896 10.9981 576 9.97276 581.423 9.97276C586.846 9.97276 591.927 10.9981 596.667 13.0489C601.452 15.0997 605.622 17.9024 609.177 21.4571C612.732 25.0118 615.534 29.1817 617.585 33.9669C619.636 38.7065 620.661 43.7879 620.661 49.211V108Z" fill="white"/>
</svg>
